<?xml version="1.0" encoding="UTF-8"?>
<svg version="1.1" xmlns="http://www.w3.org/2000/svg" width="1536" height="1024">
<path d="M0 0 C506.88 0 1013.76 0 1536 0 C1536 337.92 1536 675.84 1536 1024 C1029.12 1024 522.24 1024 0 1024 C0 686.08 0 348.16 0 0 Z " fill="#0E0F11" transform="translate(0,0)"/>
<path d="M0 0 C21.12 0 42.24 0 64 0 C71.91346294 22.54911484 79.8021029 45.10678691 87.625 67.6875 C88.02931244 68.85453461 88.43362488 70.02156921 88.85018921 71.22396851 C94.63344225 87.93865721 100.26055998 104.69528226 105.61181641 121.5534668 C105.95255188 122.62290276 105.95255188 122.62290276 106.3001709 123.71394348 C106.89877601 125.59588262 107.49279496 127.47927884 108.08642578 129.36279297 C108.74823487 131.89379897 108.74823487 131.89379897 110 133 C110.34393799 131.82598633 110.68787598 130.65197266 111.04223633 129.44238281 C114.68251885 117.11175615 118.60760127 104.89324025 122.6965332 92.70458984 C123.70031774 89.71178363 124.69911665 86.7173462 125.69726562 83.72265625 C126.34346451 81.78896707 126.98993857 79.85536982 127.63671875 77.921875 C128.07741951 76.60144196 128.07741951 76.60144196 128.52702332 75.2543335 C130.24931117 70.12661213 132.0783575 65.05637941 134 60 C134.97507059 57.29744019 135.9274876 54.58733561 136.875 51.875 C137.15746582 51.06820801 137.43993164 50.26141602 137.73095703 49.43017578 C139.95042387 43.06634461 142.13474488 36.69069185 144.3125 30.3125 C144.74986984 29.0318718 144.74986984 29.0318718 145.19607544 27.72537231 C146.68104478 23.37612998 148.16392429 19.02618845 149.64404297 14.67529297 C150.19756066 13.05174742 150.75110757 11.42821183 151.3046875 9.8046875 C151.56169434 9.04720215 151.81870117 8.2897168 152.08349609 7.50927734 C153.88682979 2.22634042 153.88682979 2.22634042 155 0 C175.79 0 196.58 0 218 0 C214.62439859 11.2520047 214.62439859 11.2520047 212.828125 15.94921875 C212.21445068 17.56123169 212.21445068 17.56123169 211.58837891 19.20581055 C211.14671387 20.35476807 210.70504883 21.50372559 210.25 22.6875 C209.77105588 23.94106061 209.29238624 25.19472613 208.81396484 26.44848633 C207.21488237 30.63446875 205.6077425 34.81733763 204 39 C203.40981026 40.53645047 202.81964141 42.07290897 202.22949219 43.609375 C199.7225295 50.13487429 197.2136465 56.65963229 194.70141602 63.18310547 C190.51512998 74.05387547 186.34425292 84.93040453 182.1875 95.8125 C175.82220374 112.47321777 169.43941038 129.12707957 162.99609375 145.7578125 C162.73932861 146.42058701 162.48256348 147.08336151 162.21801758 147.76622009 C161.18088101 150.44305127 160.14366341 153.11985048 159.10552979 155.79629517 C156.54841085 162.38897954 153.99878513 168.98404945 151.49609375 175.59765625 C150.93656006 177.07625122 150.93656006 177.07625122 150.36572266 178.5847168 C149.68187369 180.39642515 149.00041781 182.20903927 148.32177734 184.02270508 C146.10832255 189.89167745 146.10832255 189.89167745 145 191 C142.79132169 191.09432985 140.57958479 191.11742431 138.36889648 191.11352539 C137.67624695 191.11367142 136.98359741 191.11381744 136.2699585 191.1139679 C133.97030554 191.11326874 131.67073263 191.10547628 129.37109375 191.09765625 C127.78068588 191.09579208 126.19027743 191.09436817 124.59986877 191.09336853 C120.4060407 191.08954329 116.21224705 191.07971295 112.01843262 191.06866455 C107.74211086 191.05845057 103.46578356 191.05387094 99.18945312 191.04882812 C90.79295292 191.03809069 82.39648074 191.02101419 74 191 C68.10816287 176.31429214 62.24543116 161.61863898 56.5 146.875 C56.17050354 146.03047272 55.84100708 145.18594543 55.50152588 144.31582642 C49.51327694 128.96281722 43.61114431 113.57734115 37.72695923 98.1842041 C32.74511633 85.15221247 27.74621126 72.12736919 22.6875 59.125 C22.26780441 58.04602448 22.26780441 58.04602448 21.83963013 56.94525146 C18.69881521 48.87539542 15.53615224 40.81439999 12.3515625 32.76171875 C12.05262589 32.00528076 11.75368927 31.24884277 11.44569397 30.46948242 C10.02486967 26.87488354 8.60150214 23.28134005 7.17260742 19.68994141 C6.66317716 18.40399969 6.15381477 17.11803109 5.64453125 15.83203125 C5.20471924 14.72577393 4.76490723 13.6195166 4.31176758 12.47973633 C2.75928032 8.36144099 1.39178206 4.17534619 0 0 Z " fill="#89DD9E" transform="translate(804,406)"/>
<path d="M0 0 C20.13 0 40.26 0 61 0 C61 17.82 61 35.64 61 54 C76.18 54 91.36 54 107 54 C107 68.85 107 83.7 107 99 C91.82 99 76.64 99 61 99 C61.03270341 114.0412382 61.03270341 114.0412382 61.11132812 129.08203125 C61.15360173 135.22221417 61.19065026 141.36210009 61.19555664 147.50244141 C61.19985458 152.45644419 61.22844109 157.40978056 61.27343178 162.36357498 C61.28635907 164.2476271 61.29073148 166.13175916 61.28615379 168.01585007 C60.94880398 182.35892342 60.94880398 182.35892342 67 195 C73.40501657 200.42489154 79.68475382 201.0610322 87.9296875 201.31640625 C89.09226074 201.35451416 90.25483398 201.39262207 91.45263672 201.43188477 C92.9120166 201.47498779 94.37139648 201.51809082 95.875 201.5625 C100.53625 201.706875 105.1975 201.85125 110 202 C110 216.19 110 230.38 110 245 C45.84219717 251.75345293 45.84219717 251.75345293 21.9921875 233.7265625 C19.53568013 231.57803516 17.25016834 229.36203139 15 227 C14.41863281 226.42636719 13.83726562 225.85273437 13.23828125 225.26171875 C5.89198716 217.50832524 3.16218249 207.19732012 1 197 C0.82541763 196.30654984 0.65083527 195.61309967 0.47096252 194.89863586 C-0.18107918 190.88551089 -0.13066106 186.95432831 -0.11352539 182.89526367 C-0.11367142 181.98745148 -0.11381744 181.07963928 -0.1139679 180.14431763 C-0.11327281 177.15217679 -0.10549931 174.16009868 -0.09765625 171.16796875 C-0.09579064 169.09003229 -0.09436741 167.01209538 -0.09336853 164.93415833 C-0.08955465 159.47122987 -0.07973399 154.00832809 -0.06866455 148.54541016 C-0.05842616 142.96842815 -0.05386571 137.39144182 -0.04882812 131.81445312 C-0.03811072 120.87628849 -0.02052304 109.93815064 0 99 C-12.21 99 -24.42 99 -37 99 C-37 84.15 -37 69.3 -37 54 C-24.79 54 -12.58 54 0 54 C0 36.18 0 18.36 0 0 Z " fill="#F69A20" transform="translate(688,352)"/>
<path d="M0 0 C13.14343844 9.69807108 22.66708294 22.87153538 25.5 39.12890625 C27.45299703 57.33276744 25.06448776 74.63891737 13.30078125 89.3125 C2.82275239 101.67056706 -11.88257483 110.5451815 -28.18359375 112.078125 C-46.83754512 113.08010867 -62.73565768 108.54999761 -77.015625 96.18359375 C-89.85297138 83.71633303 -96.23148479 68.50002313 -96.49609375 50.703125 C-96.39347158 33.89691171 -90.20321559 18.70539693 -78.2734375 6.83984375 C-56.39386021 -13.48145999 -25.11959594 -15.72110766 0 0 Z " fill="#EC4B25" transform="translate(594.18359375,469.921875)"/>
<path d="M0 0 C20.46 0 40.92 0 62 0 C58.63352075 2.2443195 57.54377354 2.2450516 53.6105957 2.22705078 C52.50968094 2.22689972 51.40876617 2.22674866 50.27449036 2.22659302 C48.49312935 2.21110916 48.49312935 2.21110916 46.67578125 2.1953125 C45.45924362 2.1924826 44.24270599 2.18965271 42.98930359 2.18673706 C39.09693642 2.17552603 35.20479784 2.15041948 31.3125 2.125 C28.67643561 2.11497141 26.04036762 2.10584535 23.40429688 2.09765625 C16.93611968 2.07558366 10.46807617 2.04209688 4 2 C4.68750187 6.5404345 5.79025131 10.18213019 7.6875 14.375 C10.32314824 20.30822462 12.67823349 26.30865486 14.90698242 32.40576172 C16.02756917 35.45848912 17.19949702 38.46061877 18.4921875 41.4453125 C20.45990405 46.08422976 22.05899208 50.82091982 23.66210938 55.59570312 C25.19252069 60.04156818 26.98699628 64.07804909 29.33032227 68.16040039 C30.17373624 70.47725211 29.66803892 71.67600112 29 74 C26.27372215 68.72011963 23.91469732 63.47116516 21.86328125 57.8984375 C21.58226059 57.14729675 21.30123993 56.39615601 21.01170349 55.62225342 C20.4152824 54.02781055 19.82063523 52.43270312 19.22766113 50.8369751 C14.57671792 38.32496386 9.86538324 25.85631136 4.6652832 13.56005859 C4.3374585 12.77969238 4.00963379 11.99932617 3.671875 11.1953125 C3.3944043 10.54578613 3.11693359 9.89625977 2.83105469 9.22705078 C1.70627442 6.21287758 0.8838326 3.09341408 0 0 Z " fill="#ECE82F" transform="translate(804,406)"/>
<path d="M0 0 C14.85 0 29.7 0 45 0 C45 14.52 45 29.04 45 44 C33.78 44 22.56 44 11 44 C11 43.67 11 43.34 11 43 C21.56 42.67 32.12 42.34 43 42 C43.020625 38.184375 43.04125 34.36875 43.0625 30.4375 C43.071604 29.26888428 43.08070801 28.10026855 43.09008789 26.89624023 C43.11152504 18.50463488 42.56208093 10.43121401 42 2 C28.14 1.67 14.28 1.34 0 1 C0 0.67 0 0.34 0 0 Z " fill="#F6C91C" transform="translate(750,406)"/>
<path d="M0 0 C17.82 0 35.64 0 54 0 C53.01 3.3 52.02 6.6 51 10 C50.34 10.33 49.68 10.66 49 11 C49.66 8.03 50.32 5.06 51 2 C49.84588623 2.00523682 48.69177246 2.01047363 47.50268555 2.01586914 C43.17326652 2.03412808 38.84385082 2.04550751 34.5144043 2.05493164 C32.6494896 2.0599245 30.78457874 2.06672112 28.91967773 2.07543945 C9.03989442 2.16597155 9.03989442 2.16597155 0 1 C0 0.67 0 0.34 0 0 Z " fill="#3CD1D3" transform="translate(968,406)"/>
<path d="M0 0 C2.20623096 2.74372632 3.67737842 5.27969401 4.9375 8.5625 C5.44603516 9.87927734 5.44603516 9.87927734 5.96484375 11.22265625 C7.33537199 14.89980937 8.67225503 18.58845929 10 22.28125 C10.95412042 24.87526489 11.96238844 27.43839645 13 30 C14.47006531 33.65466436 15.91670016 37.31623961 17.3125 41 C17.65925781 41.9075 18.00601563 42.815 18.36328125 43.75 C19 46 19 46 18 48 C15.16154126 42.50835138 12.72374126 37.01304323 10.546875 31.23046875 C10.24179016 30.42764969 9.93670532 29.62483063 9.62237549 28.79768372 C8.98507126 27.11697951 8.34990137 25.43546453 7.71679688 23.75317383 C6.74513608 21.17459218 5.76360507 18.59991432 4.78125 16.02539062 C4.16086431 14.38564129 3.54105192 12.74567491 2.921875 11.10546875 C2.62819031 10.33671921 2.33450562 9.56796967 2.03192139 8.77592468 C0.88847919 5.71944555 0 3.29155695 0 0 Z " fill="#CCE36D" transform="translate(839,494)"/>
<path d="M0 0 C2.57828199 2.57828199 3.55520166 5.29355425 4.9765625 8.6171875 C5.61039468 10.09290363 6.26758812 11.55910688 6.9609375 13.0078125 C8.61438031 16.51189772 9.17218951 18.32394989 8 22 C0 6.85714286 0 6.85714286 0 0 Z " fill="#E7E53D" transform="translate(825,458)"/>
<path d="M0 0 C2.55227651 3.07150755 3.88776704 5.98525624 5.1875 9.75 C5.53167969 10.73484375 5.87585938 11.7196875 6.23046875 12.734375 C6.61138672 13.85585938 6.61138672 13.85585938 7 15 C6.34 15.66 5.68 16.32 5 17 C4.16080602 14.73117913 3.32848276 12.46022973 2.5 10.1875 C2.26152344 9.54490234 2.02304687 8.90230469 1.77734375 8.24023438 C0.72931254 5.35066261 0 3.09923939 0 0 Z " fill="#E9DF2C" transform="translate(819,442)"/>
<path d="M0 0 C0.99 0 1.98 0 3 0 C3.69906942 1.59915881 4.38389468 3.20455045 5.0625 4.8125 C5.63677734 6.15248047 5.63677734 6.15248047 6.22265625 7.51953125 C7 10 7 10 6 13 C3.59195432 10.59195432 2.99231241 8.57796225 1.875 5.375 C1.52179687 4.37210937 1.16859375 3.36921875 0.8046875 2.3359375 C0.53914062 1.56507813 0.27359375 0.79421875 0 0 Z " fill="#DDE74D" transform="translate(833,481)"/>
<path d="M0 0 C1.98 0 3.96 0 6 0 C5.34 0.66 4.68 1.32 4 2 C4.27954633 4.84881675 4.27954633 4.84881675 5 8 C5.33333333 10 5.66666667 12 6 14 C4.31821339 11.47732009 3.09893258 9.18908177 1.875 6.4375 C1.52179687 5.65246094 1.16859375 4.86742187 0.8046875 4.05859375 C0 2 0 2 0 0 Z " fill="#E1CF22" transform="translate(804,406)"/>
<path d="M0 0 C2.92586433 1.46293216 3.05946588 3.40270098 4.125 6.4375 C4.47820313 7.42621094 4.83140625 8.41492188 5.1953125 9.43359375 C6 12 6 12 6 14 C5.34 14 4.68 14 4 14 C3.32739649 12.23141309 2.66211605 10.46003984 2 8.6875 C1.62875 7.70136719 1.2575 6.71523438 0.875 5.69921875 C0 3 0 3 0 0 Z " fill="#A7CE77" transform="translate(880,445)"/>
</svg>